<svg width="768" height="768" viewBox="0 0 768 768" fill="none" xmlns="http://www.w3.org/2000/svg">
<circle cx="384" cy="384" r="384" fill="#222222"/>
<circle cx="275" cy="200" r="72" fill="white"/>
<path fill-rule="evenodd" clip-rule="evenodd" d="M274.758 337.916C355.624 337.916 421.178 272.166 421.178 191.061C421.178 168.489 416.101 147.107 407.029 128C495.579 139.434 564 215.331 564 307.256C564 407.078 483.318 488 383.791 488C288.421 488 210.355 413.696 204 319.66C224.973 331.293 249.095 337.916 274.758 337.916Z" fill="white"/>
<path d="M236.397 477L266.095 506.698C282.497 523.101 282.497 549.693 266.095 566.095C249.693 582.497 223.101 582.497 206.698 566.095C190.296 549.693 190.296 523.101 206.698 506.698L236.397 477Z" fill="white"/>
<path d="M384.397 538L414.095 567.698C430.497 584.101 430.497 610.693 414.095 627.095C397.693 643.497 371.101 643.497 354.698 627.095C338.296 610.693 338.296 584.101 354.698 567.698L384.397 538Z" fill="white"/>
<path d="M532.397 477L562.095 506.698C578.497 523.101 578.497 549.693 562.095 566.095C545.693 582.497 519.101 582.497 502.698 566.095C486.296 549.693 486.296 523.101 502.698 506.698L532.397 477Z" fill="white"/>
</svg>
