<svg width="24" height="24" viewBox="0 0 24 24" fill="none" xmlns="http://www.w3.org/2000/svg">
<rect width="24" height="24" rx="12" fill="#232836"/>
<circle cx="9.13713" cy="7" r="2" fill="#FFE0B1"/>
<path fill-rule="evenodd" clip-rule="evenodd" d="M9.13713 11C11.3463 11 13.1371 9.20914 13.1371 7C13.1371 6.28737 12.9508 5.61826 12.6241 5.03875C15.0848 5.35197 16.9871 7.45345 16.9871 9.99923C16.9871 12.7611 14.7482 15 11.9864 15C9.35323 15 7.19543 12.9649 7 10.3818C7.61824 10.7733 8.35121 11 9.13713 11Z" fill="white"/>
<g clip-path="url(#clip0)">
<path d="M12 16.3823L12.9428 17.3251C13.4635 17.8458 13.4635 18.69 12.9428 19.2107C12.4221 19.7314 11.5779 19.7314 11.0572 19.2107C10.5365 18.69 10.5365 17.8458 11.0572 17.3251L12 16.3823Z" fill="#9D9BF5"/>
</g>
<g clip-path="url(#clip1)">
<path d="M17 14.3823L17.9428 15.3251C18.4635 15.8458 18.4635 16.69 17.9428 17.2107C17.4221 17.7314 16.5779 17.7314 16.0572 17.2107C15.5365 16.69 15.5365 15.8458 16.0572 15.3251L17 14.3823Z" fill="#9D9BF5"/>
</g>
<g clip-path="url(#clip2)">
<path d="M7 14.3823L7.94281 15.3251C8.46351 15.8458 8.46351 16.69 7.94281 17.2107C7.42211 17.7314 6.57789 17.7314 6.05719 17.2107C5.53649 16.69 5.53649 15.8458 6.05719 15.3251L7 14.3823Z" fill="#9D9BF5"/>
</g>
<defs>
<clipPath id="clip0">
<rect x="10" y="16" width="4" height="4" fill="white"/>
</clipPath>
<clipPath id="clip1">
<rect x="15" y="14" width="4" height="4" fill="white"/>
</clipPath>
<clipPath id="clip2">
<rect x="5" y="14" width="4" height="4" fill="white"/>
</clipPath>
</defs>
</svg>
